<?xml version="1.0" encoding="utf-8"?>
<!-- Generator: Adobe Illustrator 16.0.0, SVG Export Plug-In . SVG Version: 6.00 Build 0)  -->
<!DOCTYPE svg PUBLIC "-//W3C//DTD SVG 1.1//EN" "http://www.w3.org/Graphics/SVG/1.1/DTD/svg11.dtd">
<svg version="1.1" id="Layer_1" xmlns="http://www.w3.org/2000/svg" xmlns:xlink="http://www.w3.org/1999/xlink" x="0px" y="0px"
	 width="230px" height="65px" viewBox="0 0 230 65" enable-background="new 0 0 230 65" xml:space="preserve">
<g>
	<path fill="#4B4B4B" d="M62.742,23.068h-3.59v10.726h-2.544V23.068h-3.572v-1.96h9.706V23.068z"/>
	<path fill="#4B4B4B" d="M74.417,33.794h-2.535v-5.271h-5.175v5.271h-2.545V21.108h2.545v5.455h5.175v-5.455h2.535V33.794z"/>
	<path fill="#4B4B4B" d="M79.496,33.794h-2.544V21.108h2.544V33.794z"/>
	<path fill="#4B4B4B" d="M92.286,33.794h-2.535l-5.123-8.669l-0.052,0.009v8.661h-2.545V21.108h2.545l5.123,8.661l0.052-0.009
		v-8.652h2.535V33.794z"/>
	<path fill="#4B4B4B" d="M98.621,28.496H97.21v5.298h-2.545V21.108h2.545v5.185h1.106l3.362-5.185h3.111l-4.27,5.908l4.609,6.778
		h-3.103L98.621,28.496z"/>
	<path fill="#4B4B4B" d="M113.337,33.794h-2.544V21.108h2.544V33.794z"/>
	<path fill="#4B4B4B" d="M126.127,33.794h-2.535l-5.123-8.669l-0.052,0.009v8.661h-2.545V21.108h2.545l5.123,8.661l0.052-0.009
		v-8.652h2.535V33.794z"/>
	<path fill="#4B4B4B" d="M138.761,33.794h-2.535l-5.123-8.669l-0.052,0.009v8.661h-2.545V21.108h2.545l5.123,8.661l0.052-0.009
		v-8.652h2.535V33.794z"/>
	<path fill="#4B4B4B" d="M151.342,28.593c0,1.557-0.492,2.843-1.477,3.859c-0.985,1.017-2.265,1.524-3.838,1.524
		c-1.563,0-2.832-0.508-3.808-1.524c-0.977-1.017-1.464-2.303-1.464-3.859V26.31c0-1.551,0.486-2.836,1.459-3.855
		c0.973-1.019,2.241-1.529,3.804-1.529c1.573,0,2.854,0.51,3.842,1.529c0.987,1.02,1.481,2.305,1.481,3.855V28.593z M148.798,26.299
		c0-0.989-0.247-1.801-0.741-2.436c-0.493-0.634-1.173-0.952-2.038-0.952c-0.866,0-1.537,0.316-2.013,0.947
		c-0.477,0.631-0.715,1.445-0.715,2.44v2.305c0,1.007,0.241,1.827,0.724,2.462c0.481,0.634,1.152,0.951,2.013,0.951
		c0.871,0,1.551-0.317,2.038-0.951c0.488-0.635,0.732-1.455,0.732-2.462V26.299z"/>
</g>
<g>
	<path fill="#4B4B4B" d="M158.028,30.422l0.156,0.688h0.053l0.148-0.671l2.762-9.332h2.684l-4.313,12.686h-2.613L152.6,21.108h2.684
		L158.028,30.422z"/>
</g>
<g>
	<path fill="#4B4B4B" d="M170.468,31.059h-4.452l-0.862,2.735h-2.57l4.365-12.686h2.605l4.348,12.686h-2.57L170.468,31.059z
		 M166.644,29.063h3.197l-1.568-4.983h-0.052L166.644,29.063z"/>
</g>
<g>
	<path fill="#4B4B4B" d="M183.027,23.068h-3.59v10.726h-2.544V23.068h-3.572v-1.96h9.706V23.068z"/>
	<path fill="#4B4B4B" d="M187.148,33.794h-2.544V21.108h2.544V33.794z"/>
	<path fill="#4B4B4B" d="M199.887,28.593c0,1.557-0.492,2.843-1.477,3.859c-0.985,1.017-2.265,1.524-3.838,1.524
		c-1.563,0-2.832-0.508-3.808-1.524c-0.977-1.017-1.464-2.303-1.464-3.859V26.31c0-1.551,0.486-2.836,1.459-3.855
		c0.973-1.019,2.241-1.529,3.804-1.529c1.573,0,2.854,0.51,3.842,1.529c0.987,1.02,1.481,2.305,1.481,3.855V28.593z M197.343,26.299
		c0-0.989-0.247-1.801-0.741-2.436c-0.493-0.634-1.173-0.952-2.038-0.952c-0.866,0-1.537,0.316-2.013,0.947
		c-0.477,0.631-0.715,1.445-0.715,2.44v2.305c0,1.007,0.241,1.827,0.724,2.462c0.481,0.634,1.152,0.951,2.013,0.951
		c0.871,0,1.551-0.317,2.038-0.951c0.488-0.635,0.732-1.455,0.732-2.462V26.299z"/>
	<path fill="#4B4B4B" d="M212.127,33.794h-2.535l-5.123-8.669l-0.052,0.009v8.661h-2.545V21.108h2.545l5.123,8.661l0.052-0.009
		v-8.652h2.535V33.794z"/>
	<path fill="#4B4B4B" d="M221.354,30.483c0-0.488-0.173-0.88-0.519-1.177c-0.346-0.296-0.951-0.575-1.816-0.836
		c-1.511-0.436-2.651-0.953-3.424-1.551c-0.773-0.598-1.159-1.417-1.159-2.457c0-1.04,0.442-1.889,1.329-2.548
		c0.886-0.659,2.017-0.989,3.394-0.989c1.394,0,2.529,0.37,3.406,1.111s1.301,1.654,1.272,2.74l-0.018,0.052h-2.466
		c0-0.587-0.196-1.062-0.588-1.425c-0.393-0.363-0.942-0.544-1.651-0.544c-0.68,0-1.205,0.151-1.577,0.453
		c-0.372,0.302-0.558,0.688-0.558,1.159c0,0.43,0.199,0.783,0.597,1.059c0.398,0.276,1.085,0.568,2.061,0.875
		c1.4,0.39,2.46,0.903,3.181,1.542c0.72,0.64,1.08,1.479,1.08,2.519c0,1.086-0.429,1.942-1.285,2.57
		c-0.856,0.627-1.988,0.94-3.394,0.94c-1.383,0-2.588-0.355-3.615-1.067c-1.028-0.711-1.528-1.709-1.499-2.992l0.018-0.053h2.475
		c0,0.756,0.23,1.309,0.692,1.66s1.104,0.527,1.93,0.527c0.691,0,1.22-0.143,1.586-0.428
		C221.172,31.34,221.354,30.959,221.354,30.483z"/>
</g>
<g>
	<path fill="#4B4B4B" d="M85.707,45.655c-0.116,0.992-0.481,1.758-1.098,2.296c-0.616,0.539-1.436,0.809-2.457,0.809
		c-1.107,0-1.995-0.397-2.663-1.191c-0.667-0.794-1.001-1.856-1.001-3.188v-0.902c0-0.871,0.155-1.638,0.467-2.299
		s0.752-1.169,1.323-1.522c0.571-0.354,1.232-0.531,1.983-0.531c0.996,0,1.795,0.277,2.396,0.834
		c0.602,0.556,0.951,1.325,1.05,2.309h-1.243c-0.107-0.75-0.34-1.292-0.698-1.628s-0.859-0.504-1.504-0.504
		c-0.79,0-1.409,0.292-1.857,0.877c-0.449,0.584-0.674,1.415-0.674,2.494v0.908c0,1.019,0.213,1.829,0.638,2.431
		c0.426,0.602,1.02,0.902,1.784,0.902c0.687,0,1.214-0.156,1.581-0.468c0.367-0.311,0.61-0.853,0.73-1.626H85.707z"/>
	<path fill="#4B4B4B" d="M97.509,44.245c0,0.919-0.154,1.721-0.464,2.405c-0.309,0.685-0.747,1.208-1.313,1.568
		s-1.228,0.541-1.983,0.541c-0.738,0-1.394-0.182-1.964-0.544c-0.571-0.363-1.015-0.881-1.33-1.553s-0.478-1.449-0.486-2.334v-0.677
		c0-0.901,0.157-1.697,0.471-2.389c0.313-0.691,0.756-1.221,1.329-1.588c0.573-0.366,1.229-0.55,1.968-0.55
		c0.751,0,1.413,0.181,1.986,0.544c0.573,0.362,1.015,0.889,1.323,1.577c0.31,0.689,0.464,1.491,0.464,2.405V44.245z M96.279,43.64
		c0-1.111-0.224-1.965-0.67-2.56s-1.071-0.892-1.874-0.892c-0.781,0-1.396,0.297-1.845,0.892c-0.449,0.595-0.68,1.42-0.692,2.477
		v0.688c0,1.078,0.227,1.925,0.679,2.541c0.453,0.616,1.077,0.924,1.871,0.924c0.799,0,1.417-0.291,1.854-0.873
		c0.438-0.581,0.664-1.415,0.677-2.502V43.64z"/>
	<path fill="#4B4B4B" d="M109.472,48.631h-1.243l-4.721-7.226v7.226h-1.243v-9.377h1.243l4.733,7.258v-7.258h1.23V48.631z"/>
	<path fill="#4B4B4B" d="M117.331,44.451c-1.06-0.305-1.832-0.68-2.314-1.124c-0.483-0.444-0.725-0.992-0.725-1.645
		c0-0.739,0.295-1.35,0.886-1.833c0.59-0.482,1.357-0.724,2.302-0.724c0.645,0,1.219,0.124,1.723,0.373
		c0.505,0.249,0.896,0.593,1.172,1.03c0.277,0.438,0.416,0.917,0.416,1.437h-1.243c0-0.569-0.181-1.016-0.541-1.341
		s-0.869-0.488-1.526-0.488c-0.609,0-1.085,0.135-1.427,0.403c-0.341,0.269-0.512,0.642-0.512,1.119
		c0,0.383,0.162,0.707,0.486,0.971c0.324,0.265,0.876,0.507,1.655,0.727c0.779,0.219,1.389,0.461,1.829,0.725
		c0.439,0.264,0.766,0.572,0.979,0.924c0.213,0.353,0.318,0.767,0.318,1.243c0,0.76-0.296,1.368-0.889,1.826
		c-0.592,0.457-1.384,0.686-2.376,0.686c-0.644,0-1.245-0.124-1.803-0.37c-0.559-0.247-0.989-0.585-1.292-1.015
		c-0.302-0.429-0.453-0.916-0.453-1.462h1.242c0,0.566,0.21,1.015,0.628,1.343c0.419,0.328,0.978,0.493,1.678,0.493
		c0.652,0,1.153-0.134,1.501-0.399c0.348-0.267,0.521-0.629,0.521-1.089c0-0.459-0.161-0.814-0.483-1.065
		S118.178,44.696,117.331,44.451z"/>
	<path fill="#4B4B4B" d="M131.883,39.254v6.376c-0.005,0.885-0.282,1.607-0.834,2.17s-1.3,0.878-2.244,0.947l-0.329,0.013
		c-1.025,0-1.844-0.277-2.453-0.831s-0.919-1.315-0.928-2.286v-6.389h1.224v6.351c0,0.678,0.187,1.205,0.561,1.581
		c0.373,0.375,0.905,0.563,1.597,0.563c0.7,0,1.235-0.188,1.607-0.561c0.371-0.374,0.557-0.899,0.557-1.578v-6.356H131.883z"/>
	<path fill="#4B4B4B" d="M137.965,47.62h4.443v1.011h-5.687v-9.377h1.243V47.62z"/>
	<path fill="#4B4B4B" d="M151.418,40.266h-3.014v8.365h-1.229v-8.365h-3.008v-1.012h7.251V40.266z"/>
	<path fill="#4B4B4B" d="M160.374,46.178h-3.928l-0.883,2.453h-1.274l3.58-9.377h1.082l3.587,9.377h-1.269L160.374,46.178z
		 M156.819,45.166h3.188l-1.598-4.386L156.819,45.166z"/>
	<path fill="#4B4B4B" d="M173.896,48.631h-1.243l-4.721-7.226v7.226h-1.243v-9.377h1.243l4.733,7.258v-7.258h1.23V48.631z"/>
	<path fill="#4B4B4B" d="M185.89,45.655c-0.116,0.992-0.481,1.758-1.098,2.296c-0.616,0.539-1.436,0.809-2.457,0.809
		c-1.107,0-1.995-0.397-2.663-1.191c-0.667-0.794-1.001-1.856-1.001-3.188v-0.902c0-0.871,0.155-1.638,0.467-2.299
		s0.752-1.169,1.323-1.522c0.571-0.354,1.232-0.531,1.983-0.531c0.996,0,1.795,0.277,2.396,0.834
		c0.602,0.556,0.951,1.325,1.05,2.309h-1.243c-0.107-0.75-0.34-1.292-0.698-1.628s-0.859-0.504-1.504-0.504
		c-0.79,0-1.409,0.292-1.857,0.877c-0.449,0.584-0.674,1.415-0.674,2.494v0.908c0,1.019,0.213,1.829,0.638,2.431
		c0.426,0.602,1.02,0.902,1.784,0.902c0.687,0,1.214-0.156,1.581-0.468c0.367-0.311,0.61-0.853,0.73-1.626H185.89z"/>
	<path fill="#4B4B4B" d="M193.337,43.962l2.447-4.708h1.404l-3.233,5.88v3.497h-1.236v-3.497l-3.232-5.88h1.417L193.337,43.962z"/>
</g>
<path fill="#6EDA44" d="M14.982,37.472c0.66,1.427,2.349,2.047,3.775,1.388l19.132-8.526c1.426-0.659,2.048-2.35,1.388-3.777
	c-0.661-1.426-2.351-2.046-3.777-1.387l-19.133,8.525C14.942,34.354,14.322,36.044,14.982,37.472"/>
<path fill="#6EDA44" d="M11.514,27.387c-1.391,0.731-1.925,2.449-1.194,3.841l6.563,14.171c0.733,1.391,2.452,1.925,3.843,1.195
	c1.39-0.732,1.924-2.453,1.194-3.843l-6.564-14.172C14.625,27.189,12.906,26.656,11.514,27.387"/>
<path fill="#6EDA44" d="M21.761,29.298L32.2,24.689c1.43-0.651,2.062-2.338,1.411-3.768c-0.652-1.43-2.339-2.062-3.769-1.41
	L19.403,24.12c-1.429,0.652-2.062,2.337-1.41,3.768C18.644,29.32,20.332,29.949,21.761,29.298"/>
<path fill="#6EDA44" d="M15.107,24.165l7.546-3.438c1.439-0.632,2.094-2.312,1.461-3.751c-0.631-1.438-2.31-2.091-3.749-1.459
	l-7.547,3.439c-1.438,0.63-2.092,2.309-1.46,3.748C11.99,24.142,13.667,24.795,15.107,24.165"/>
<path fill="#6EDA44" d="M37.669,33.256c-1.393-0.728-3.11-0.187-3.836,1.206l-3.934,7.302c-0.726,1.395-0.186,3.112,1.208,3.839
	c1.394,0.725,3.111,0.184,3.837-1.209l3.934-7.301C39.604,35.699,39.063,33.982,37.669,33.256"/>
<path fill="#6EDA44" d="M34.084,48.243H19.949c-1.161,0-2.102,0.941-2.102,2.102c0,1.161,0.94,2.102,2.102,2.102h14.135
	c1.162,0,2.103-0.94,2.103-2.102C36.187,49.185,35.246,48.243,34.084,48.243"/>
<path fill="#6EDA44" d="M30.754,53.436h-7.476c-1.162,0-2.102,0.942-2.102,2.104c0,1.16,0.94,2.102,2.102,2.102h7.476
	c1.162,0,2.103-0.941,2.103-2.102C32.857,54.378,31.916,53.436,30.754,53.436"/>
<path fill="#6EDA44" d="M31.28,60.06c-0.015-0.055-0.032-0.107-0.056-0.155c-0.208-0.479-0.737-0.819-1.361-0.819h-5.332
	c-0.625,0-1.153,0.341-1.36,0.819c-0.024,0.048-0.041,0.101-0.057,0.155c-0.003,0.014-0.008,0.025-0.011,0.038
	c-0.019,0.076-0.029,0.157-0.029,0.248c0,0.178,0.044,0.346,0.121,0.5c0.523,1.143,2.64,2.308,4.003,2.308
	c1.637,0,3.775-1.317,4.082-2.522c0.003-0.014,0.009-0.025,0.012-0.038c0.019-0.083,0.029-0.166,0.029-0.247
	c0-0.091-0.012-0.172-0.029-0.248C31.289,60.085,31.283,60.072,31.28,60.06"/>
<path fill="#4B4B4B" d="M39.215,16.708c-0.52,0.581-1.304,0.73-1.75,0.33c-0.447-0.4-0.39-1.197,0.131-1.777l3.193-3.572
	c0.519-0.583,1.302-0.73,1.751-0.332c0.447,0.4,0.387,1.196-0.132,1.778L39.215,16.708z"/>
<path fill="#4B4B4B" d="M32.888,11.346c-0.286,0.725-0.97,1.136-1.528,0.916c-0.557-0.221-0.777-0.987-0.491-1.713l1.759-4.458
	c0.287-0.725,0.971-1.136,1.529-0.915c0.558,0.219,0.777,0.987,0.49,1.713L32.888,11.346z"/>
<path fill="#4B4B4B" d="M4.625,16.708c0.52,0.581,1.304,0.73,1.75,0.33c0.448-0.4,0.389-1.197-0.131-1.777l-3.192-3.572
	c-0.521-0.583-1.304-0.73-1.752-0.332c-0.446,0.4-0.388,1.196,0.133,1.778L4.625,16.708z"/>
<path fill="#4B4B4B" d="M10.952,11.346c0.287,0.725,0.971,1.136,1.529,0.916c0.557-0.221,0.778-0.987,0.492-1.713l-1.76-4.458
	c-0.287-0.725-0.971-1.136-1.528-0.915C9.125,5.395,8.906,6.163,9.193,6.889L10.952,11.346z"/>
<path fill="#4B4B4B" d="M22.874,8.564c0.003,0.78-0.48,1.415-1.08,1.418c-0.599,0.001-1.088-0.629-1.092-1.41l-0.017-4.792
	C20.681,3,21.165,2.367,21.764,2.364c0.6-0.002,1.089,0.63,1.091,1.409L22.874,8.564z"/>
</svg>
